<mxfile host="Electron" modified="2024-05-10T11:40:29.450Z" agent="Mozilla/5.0 (Windows NT 10.0; Win64; x64) AppleWebKit/537.36 (KHTML, like Gecko) draw.io/24.2.5 Chrome/120.0.6099.109 Electron/28.1.0 Safari/537.36" etag="r3at_MVLd64iGZfodI_V" version="24.2.5" type="device">
  <diagram name="Page-1" id="jXQHokJRxsiw9EK2wlkt">
    <mxGraphModel dx="1036" dy="606" grid="1" gridSize="10" guides="1" tooltips="1" connect="1" arrows="1" fold="1" page="1" pageScale="1" pageWidth="827" pageHeight="1169" math="0" shadow="0">
      <root>
        <mxCell id="0" />
        <mxCell id="1" parent="0" />
        <mxCell id="G1e4OCAc4E55W1s1o055-22" style="edgeStyle=none;rounded=0;orthogonalLoop=1;jettySize=auto;html=1;exitX=1;exitY=0.5;exitDx=0;exitDy=0;entryX=0;entryY=0.5;entryDx=0;entryDy=0;strokeColor=default;align=center;verticalAlign=middle;fontFamily=Helvetica;fontSize=11;fontColor=default;labelBackgroundColor=default;endArrow=classicThin;endFill=1;" edge="1" parent="1" source="G1e4OCAc4E55W1s1o055-1" target="G1e4OCAc4E55W1s1o055-2">
          <mxGeometry relative="1" as="geometry" />
        </mxCell>
        <mxCell id="G1e4OCAc4E55W1s1o055-23" style="edgeStyle=none;rounded=0;orthogonalLoop=1;jettySize=auto;html=1;exitX=1;exitY=0.5;exitDx=0;exitDy=0;entryX=0;entryY=0.5;entryDx=0;entryDy=0;strokeColor=default;align=center;verticalAlign=middle;fontFamily=Helvetica;fontSize=11;fontColor=default;labelBackgroundColor=default;endArrow=classicThin;endFill=1;" edge="1" parent="1" source="G1e4OCAc4E55W1s1o055-1" target="G1e4OCAc4E55W1s1o055-4">
          <mxGeometry relative="1" as="geometry" />
        </mxCell>
        <mxCell id="G1e4OCAc4E55W1s1o055-24" style="edgeStyle=none;rounded=0;orthogonalLoop=1;jettySize=auto;html=1;exitX=1;exitY=0.5;exitDx=0;exitDy=0;entryX=0;entryY=0.5;entryDx=0;entryDy=0;strokeColor=default;align=center;verticalAlign=middle;fontFamily=Helvetica;fontSize=11;fontColor=default;labelBackgroundColor=default;endArrow=classicThin;endFill=1;" edge="1" parent="1" source="G1e4OCAc4E55W1s1o055-1" target="G1e4OCAc4E55W1s1o055-5">
          <mxGeometry relative="1" as="geometry" />
        </mxCell>
        <mxCell id="G1e4OCAc4E55W1s1o055-1" value="&lt;b&gt;task&lt;/b&gt;&lt;div&gt;(file de tÃ¢ches)&lt;/div&gt;" style="rounded=0;whiteSpace=wrap;html=1;" vertex="1" parent="1">
          <mxGeometry x="40" y="80" width="120" height="80" as="geometry" />
        </mxCell>
        <mxCell id="G1e4OCAc4E55W1s1o055-9" style="rounded=0;orthogonalLoop=1;jettySize=auto;html=1;exitX=1;exitY=0.5;exitDx=0;exitDy=0;endArrow=classicThin;endFill=1;entryX=0.54;entryY=0.55;entryDx=0;entryDy=0;entryPerimeter=0;" edge="1" parent="1" source="G1e4OCAc4E55W1s1o055-2" target="G1e4OCAc4E55W1s1o055-7">
          <mxGeometry relative="1" as="geometry">
            <mxPoint x="420" y="90" as="targetPoint" />
          </mxGeometry>
        </mxCell>
        <mxCell id="G1e4OCAc4E55W1s1o055-2" value="&lt;b&gt;append&lt;/b&gt;" style="rounded=0;whiteSpace=wrap;html=1;" vertex="1" parent="1">
          <mxGeometry x="240" y="40" width="120" height="40" as="geometry" />
        </mxCell>
        <mxCell id="G1e4OCAc4E55W1s1o055-4" value="&lt;b&gt;insert&lt;/b&gt;" style="rounded=0;whiteSpace=wrap;html=1;" vertex="1" parent="1">
          <mxGeometry x="240" y="100" width="120" height="40" as="geometry" />
        </mxCell>
        <mxCell id="G1e4OCAc4E55W1s1o055-5" value="&lt;b&gt;execution&lt;/b&gt;" style="rounded=0;whiteSpace=wrap;html=1;" vertex="1" parent="1">
          <mxGeometry x="240" y="160" width="120" height="40" as="geometry" />
        </mxCell>
        <mxCell id="G1e4OCAc4E55W1s1o055-7" value="" style="shape=waypoint;sketch=0;size=6;pointerEvents=1;points=[];fillColor=none;resizable=0;rotatable=0;perimeter=centerPerimeter;snapToPoint=1;" vertex="1" parent="1">
          <mxGeometry x="390" y="80" width="20" height="20" as="geometry" />
        </mxCell>
        <mxCell id="G1e4OCAc4E55W1s1o055-8" style="rounded=0;orthogonalLoop=1;jettySize=auto;html=1;exitX=1;exitY=0.5;exitDx=0;exitDy=0;entryX=0.66;entryY=0.55;entryDx=0;entryDy=0;entryPerimeter=0;endArrow=classicThin;endFill=1;" edge="1" parent="1" source="G1e4OCAc4E55W1s1o055-4" target="G1e4OCAc4E55W1s1o055-7">
          <mxGeometry relative="1" as="geometry" />
        </mxCell>
        <mxCell id="G1e4OCAc4E55W1s1o055-10" value="goto x y theta" style="rounded=1;whiteSpace=wrap;html=1;fontFamily=Helvetica;fontSize=11;fontColor=default;labelBackgroundColor=default;" vertex="1" parent="1">
          <mxGeometry x="440" y="35" width="120" height="20" as="geometry" />
        </mxCell>
        <mxCell id="G1e4OCAc4E55W1s1o055-11" value="wait t_ms" style="rounded=1;whiteSpace=wrap;html=1;fontFamily=Helvetica;fontSize=11;fontColor=default;labelBackgroundColor=default;" vertex="1" parent="1">
          <mxGeometry x="440" y="95" width="120" height="20" as="geometry" />
        </mxCell>
        <mxCell id="G1e4OCAc4E55W1s1o055-12" value="goto x y theta" style="rounded=1;whiteSpace=wrap;html=1;fontFamily=Helvetica;fontSize=11;fontColor=default;labelBackgroundColor=default;" vertex="1" parent="1">
          <mxGeometry x="440" y="65" width="120" height="20" as="geometry" />
        </mxCell>
        <mxCell id="G1e4OCAc4E55W1s1o055-13" value="send data" style="rounded=1;whiteSpace=wrap;html=1;fontFamily=Helvetica;fontSize=11;fontColor=default;labelBackgroundColor=default;" vertex="1" parent="1">
          <mxGeometry x="440" y="125" width="120" height="20" as="geometry" />
        </mxCell>
        <mxCell id="G1e4OCAc4E55W1s1o055-14" value="" style="endArrow=classicThin;html=1;rounded=0;strokeColor=default;align=center;verticalAlign=middle;fontFamily=Helvetica;fontSize=11;fontColor=default;labelBackgroundColor=default;exitX=1.3;exitY=0.35;exitDx=0;exitDy=0;exitPerimeter=0;entryX=0;entryY=0.5;entryDx=0;entryDy=0;endFill=1;" edge="1" parent="1" source="G1e4OCAc4E55W1s1o055-7" target="G1e4OCAc4E55W1s1o055-10">
          <mxGeometry width="50" height="50" relative="1" as="geometry">
            <mxPoint x="390" y="270" as="sourcePoint" />
            <mxPoint x="440" y="220" as="targetPoint" />
          </mxGeometry>
        </mxCell>
        <mxCell id="G1e4OCAc4E55W1s1o055-15" value="" style="endArrow=classicThin;html=1;rounded=0;strokeColor=default;align=center;verticalAlign=middle;fontFamily=Helvetica;fontSize=11;fontColor=default;labelBackgroundColor=default;entryX=0;entryY=0.5;entryDx=0;entryDy=0;endFill=1;exitX=0.86;exitY=0.79;exitDx=0;exitDy=0;exitPerimeter=0;" edge="1" parent="1" source="G1e4OCAc4E55W1s1o055-7" target="G1e4OCAc4E55W1s1o055-12">
          <mxGeometry width="50" height="50" relative="1" as="geometry">
            <mxPoint x="400" y="90" as="sourcePoint" />
            <mxPoint x="450" y="55" as="targetPoint" />
          </mxGeometry>
        </mxCell>
        <mxCell id="G1e4OCAc4E55W1s1o055-16" value="" style="endArrow=classicThin;html=1;rounded=0;strokeColor=default;align=center;verticalAlign=middle;fontFamily=Helvetica;fontSize=11;fontColor=default;labelBackgroundColor=default;entryX=0;entryY=0.5;entryDx=0;entryDy=0;endFill=1;exitX=0.26;exitY=0.51;exitDx=0;exitDy=0;exitPerimeter=0;" edge="1" parent="1" source="G1e4OCAc4E55W1s1o055-7" target="G1e4OCAc4E55W1s1o055-11">
          <mxGeometry width="50" height="50" relative="1" as="geometry">
            <mxPoint x="410" y="100" as="sourcePoint" />
            <mxPoint x="450" y="85" as="targetPoint" />
          </mxGeometry>
        </mxCell>
        <mxCell id="G1e4OCAc4E55W1s1o055-17" value="" style="endArrow=classicThin;html=1;rounded=0;strokeColor=default;align=center;verticalAlign=middle;fontFamily=Helvetica;fontSize=11;fontColor=default;labelBackgroundColor=default;entryX=0;entryY=0.5;entryDx=0;entryDy=0;endFill=1;exitX=0.5;exitY=0.5;exitDx=0;exitDy=0;exitPerimeter=0;" edge="1" parent="1" source="G1e4OCAc4E55W1s1o055-7" target="G1e4OCAc4E55W1s1o055-13">
          <mxGeometry width="50" height="50" relative="1" as="geometry">
            <mxPoint x="420" y="110" as="sourcePoint" />
            <mxPoint x="460" y="95" as="targetPoint" />
          </mxGeometry>
        </mxCell>
        <mxCell id="G1e4OCAc4E55W1s1o055-18" value="start" style="rounded=1;whiteSpace=wrap;html=1;fontFamily=Helvetica;fontSize=11;fontColor=default;labelBackgroundColor=default;" vertex="1" parent="1">
          <mxGeometry x="440" y="160" width="120" height="20" as="geometry" />
        </mxCell>
        <mxCell id="G1e4OCAc4E55W1s1o055-19" value="stop" style="rounded=1;whiteSpace=wrap;html=1;fontFamily=Helvetica;fontSize=11;fontColor=default;labelBackgroundColor=default;" vertex="1" parent="1">
          <mxGeometry x="440" y="190" width="120" height="20" as="geometry" />
        </mxCell>
        <mxCell id="G1e4OCAc4E55W1s1o055-20" value="" style="endArrow=classicThin;html=1;rounded=0;strokeColor=default;align=center;verticalAlign=middle;fontFamily=Helvetica;fontSize=11;fontColor=default;labelBackgroundColor=default;entryX=0;entryY=0.5;entryDx=0;entryDy=0;endFill=1;exitX=1;exitY=0.5;exitDx=0;exitDy=0;" edge="1" parent="1" source="G1e4OCAc4E55W1s1o055-5" target="G1e4OCAc4E55W1s1o055-18">
          <mxGeometry width="50" height="50" relative="1" as="geometry">
            <mxPoint x="410" y="100" as="sourcePoint" />
            <mxPoint x="450" y="145" as="targetPoint" />
          </mxGeometry>
        </mxCell>
        <mxCell id="G1e4OCAc4E55W1s1o055-21" value="" style="endArrow=classicThin;html=1;rounded=0;strokeColor=default;align=center;verticalAlign=middle;fontFamily=Helvetica;fontSize=11;fontColor=default;labelBackgroundColor=default;entryX=0;entryY=0.5;entryDx=0;entryDy=0;endFill=1;exitX=1;exitY=0.5;exitDx=0;exitDy=0;" edge="1" parent="1" source="G1e4OCAc4E55W1s1o055-5" target="G1e4OCAc4E55W1s1o055-19">
          <mxGeometry width="50" height="50" relative="1" as="geometry">
            <mxPoint x="420" y="110" as="sourcePoint" />
            <mxPoint x="460" y="155" as="targetPoint" />
          </mxGeometry>
        </mxCell>
      </root>
    </mxGraphModel>
  </diagram>
</mxfile>
